<mxfile host="app.diagrams.net" modified="2023-09-11T05:25:33.090Z" agent="Mozilla/5.0 (Windows NT 10.0; Win64; x64) AppleWebKit/537.36 (KHTML, like Gecko) Chrome/116.0.0.0 Safari/537.36" version="21.7.4" etag="SQO4p3vO3yisb0CX8NKf" type="github">
  <diagram name="Page-1" id="4sOrQk5HFBiou1AUmG1p">
    <mxGraphModel>
      <root>
        <mxCell id="0" />
        <mxCell id="1" parent="0" />
      </root>
    </mxGraphModel>
  </diagram>
</mxfile>
